<svg width="580" height="256" viewBox="0 0 580 256" fill="none" xmlns="http://www.w3.org/2000/svg">
<rect x="-28" width="120" height="120" rx="60" fill="#FFADF2"/>
<g clip-path="url(#clip0_2_2)">
<path d="M63.1825 55.5622C62.9498 56.687 61.9801 57.424 60.8941 57.424C60.7389 57.424 60.5837 57.424 60.4674 57.3852C59.1874 57.1525 58.3728 55.9113 58.6444 54.6701C60.4286 45.5549 56.4334 38.767 48.2104 36.9052C40.7244 35.2374 33.6262 42.607 33.5486 42.6846C33.1219 43.1501 32.5013 43.4216 31.8419 43.4216C31.2213 43.4216 30.6007 43.1501 30.1353 42.6846C30.0577 42.607 22.9595 35.2374 15.4734 36.9052C7.2892 38.767 3.29405 45.5549 5.03951 54.6701C5.27224 55.9113 4.45769 57.1525 3.21647 57.3852C1.97526 57.618 0.734049 56.8034 0.501322 55.5622C-0.623526 49.744 0.152238 44.4689 2.75103 40.2798C4.768 37.0604 7.75466 34.6555 11.4783 33.2592C12.4092 32.9101 13.4177 32.5998 14.465 32.367C22.0674 30.6604 28.8165 35.3149 31.8419 37.9137C34.8674 35.3149 41.6165 30.6604 49.2189 32.367C52.128 33.0264 54.688 34.1901 56.8213 35.8192C58.4504 37.0604 59.8468 38.5343 60.9328 40.2798C63.5316 44.4301 64.3074 49.7052 63.1825 55.5622Z" fill="#C622AC"/>
<path d="M44.1377 73.7923C44.1377 73.7923 48.6759 67.7414 50.111 66.2286C50.111 66.2286 51.7013 64.4832 52.7486 66.0735L51.1971 70.2238L44.9522 76.5074L41.7716 76.7402L44.1377 73.7923Z" fill="#FF60E6"/>
<path fill-rule="evenodd" clip-rule="evenodd" d="M52.903 65.9181C52.989 65.982 53.0069 66.1035 52.9431 66.1895C51.4757 68.1655 49.0578 70.4846 47.0158 72.3035C45.9931 73.2145 45.0616 74.0027 44.3857 74.5631C44.0478 74.8434 43.7737 75.0668 43.5839 75.2202C43.4891 75.2969 43.4153 75.3561 43.3652 75.3962L43.3081 75.4417L43.2887 75.4571C43.2887 75.4572 43.2884 75.4574 43.168 75.3054C43.0476 75.1533 43.0476 75.1533 43.0476 75.1533L43.0666 75.1382L43.1229 75.0933C43.1725 75.0536 43.2458 74.9948 43.3401 74.9186C43.5287 74.7661 43.8015 74.5437 44.1381 74.2646C44.8114 73.7062 45.7393 72.9211 46.7578 72.0139C48.7982 70.1964 51.1899 67.8998 52.6317 65.9582C52.6955 65.8722 52.817 65.8543 52.903 65.9181ZM43.0159 75.4258C42.9495 75.3418 42.9637 75.2198 43.0476 75.1533L43.168 75.3054L43.2884 75.4574C43.2044 75.5239 43.0824 75.5097 43.0159 75.4258Z" fill="#C622AC"/>
<path d="M19.5074 73.7923C19.5074 73.7923 14.9692 67.7414 13.5341 66.2286C13.5341 66.2286 11.9438 64.4832 10.8965 66.0735L12.448 70.2238L18.7316 76.5462L21.9122 76.7789L19.5074 73.7923Z" fill="#FF60E6"/>
<path d="M52.7874 66.0738C49.9947 69.7587 43.168 75.3053 43.168 75.3053C45.185 72.7841 46.7365 67.3926 43.7886 67.6641C41.9268 67.8193 41.6553 70.4569 35.7595 75.0338C35.7207 75.0726 35.6819 75.0726 35.6819 75.1114C33.4322 76.8957 30.2904 76.8957 28.0407 75.1114C28.0019 75.0726 27.9632 75.0726 27.9632 75.0338C22.0674 70.4957 21.7959 67.8193 19.9341 67.6641C16.9862 67.3926 18.5377 72.7841 20.5547 75.3053C20.5547 75.3053 13.728 69.7199 10.9353 66.0738C8.14253 62.389 3.99224 64.2508 7.17284 68.7114C10.1983 72.9781 18.7316 82.6363 30.1741 87.0581C31.2601 87.4847 32.4625 87.4847 33.5486 87.0581C44.991 82.6363 53.5244 72.9393 56.5498 68.7114C59.7304 64.2508 55.5801 62.389 52.7874 66.0738Z" fill="#FF60E6"/>
<path fill-rule="evenodd" clip-rule="evenodd" d="M10.7809 65.9181C10.8669 65.8543 10.9883 65.8722 11.0522 65.9582C12.4939 67.8998 14.8857 70.1964 16.9261 72.0139C17.9446 72.9211 18.8725 73.7062 19.5457 74.2646C19.8823 74.5437 20.1552 74.7661 20.3438 74.9186C20.4381 74.9948 20.5113 75.0536 20.5609 75.0933L20.6173 75.1382L20.636 75.1531C20.636 75.1531 20.6363 75.1533 20.5159 75.3054C20.3955 75.4574 20.3954 75.4574 20.3954 75.4573L20.3758 75.4417L20.3187 75.3962C20.2686 75.3561 20.1948 75.2969 20.0999 75.2202C19.9102 75.0668 19.6361 74.8434 19.2981 74.5631C18.6223 74.0027 17.6908 73.2145 16.6681 72.3035C14.6261 70.4846 12.2081 68.1655 10.7408 66.1895C10.6769 66.1035 10.6949 65.982 10.7809 65.9181ZM20.6679 75.4258C20.6014 75.5097 20.4793 75.5238 20.3954 75.4573L20.5159 75.3054L20.636 75.1531C20.72 75.2196 20.7344 75.3418 20.6679 75.4258Z" fill="#C622AC"/>
<path d="M41.3062 53.3124C41.0734 53.196 40.8407 53.1184 40.608 53.1184H36.225V48.7354C36.225 47.8821 35.5268 47.2227 34.7122 47.2227H29.088C28.2347 47.2227 27.5753 47.9208 27.5753 48.7354V53.1184H23.1922C22.3389 53.1184 21.6795 53.8166 21.6795 54.6699V60.2942C21.6795 61.1475 22.3777 61.8069 23.1922 61.8069H27.4977V66.1899C27.4977 67.0433 28.1959 67.7027 29.0104 67.7027H34.6347C35.488 67.7027 36.1474 67.0045 36.1474 66.1899V61.8069H40.5304C41.3837 61.8069 42.0431 61.1087 42.0431 60.2942V54.6699C42.1207 54.0881 41.8104 53.5839 41.3062 53.3124Z" fill="white"/>
<path d="M63.1825 55.5623C62.9498 56.6872 61.9801 57.4241 60.8941 57.4241C60.7389 57.4241 60.5837 57.4241 60.4674 57.3853C59.1874 57.1526 58.3728 55.9114 58.6444 54.6702C60.4286 45.555 56.4334 38.7672 48.2104 36.9053C40.7244 35.2375 33.6262 42.6072 33.5486 42.6847C33.5486 42.6847 41.9656 29.8072 56.8213 35.8193C58.4504 37.0605 59.8468 38.5344 60.9328 40.2799C63.5316 44.4302 64.3074 49.7053 63.1825 55.5623Z" fill="#C622AC"/>
<path d="M30.1353 42.6849C30.0577 42.6073 22.9595 35.2376 15.4734 36.9055C7.2892 38.7673 3.29405 45.5552 5.03951 54.6703C5.27224 55.9115 4.45769 57.1527 3.21647 57.3855C1.97526 57.6182 0.734049 56.8037 0.501322 55.5624C-0.623526 49.7443 0.152238 44.4691 2.75103 40.28C4.768 37.0606 7.75466 34.6558 11.4783 33.2594C23.6577 30.6606 30.1353 42.6849 30.1353 42.6849Z" fill="#FF60E6"/>
<path d="M12.3316 43.6157C12.3316 43.6157 18.5377 44.2751 17.4128 50.7527C10.8965 49.7054 12.3316 43.6157 12.3316 43.6157Z" fill="#FF60E6"/>
<path fill-rule="evenodd" clip-rule="evenodd" d="M12.7613 43.9302L17.2219 50.2138L16.9056 50.4383L12.445 44.1547L12.7613 43.9302Z" fill="white"/>
<path d="M51.3522 43.6157C51.3522 43.6157 45.1462 44.2751 46.271 50.7527C52.7874 49.7054 51.3522 43.6157 51.3522 43.6157Z" fill="#FF60E6"/>
<path fill-rule="evenodd" clip-rule="evenodd" d="M51.2384 44.155L46.739 50.4387L46.4236 50.2128L50.923 43.9292L51.2384 44.155Z" fill="white"/>
<path d="M55.5801 57.5402C55.5801 57.5402 50.6928 53.6227 46.9692 59.0142C52.2831 62.8542 55.5801 57.5402 55.5801 57.5402Z" fill="#FF60E6"/>
<path fill-rule="evenodd" clip-rule="evenodd" d="M55.1081 57.8093L47.5057 59.0893L47.4413 58.7068L55.0437 57.4268L55.1081 57.8093Z" fill="white"/>
<path d="M8.06496 57.5402C8.06496 57.5402 12.9522 53.6227 16.6759 59.0142C11.4007 62.8542 8.06496 57.5402 8.06496 57.5402Z" fill="#FF60E6"/>
<path fill-rule="evenodd" clip-rule="evenodd" d="M8.60125 57.4268L16.2425 58.7068L16.1784 59.0893L8.53717 57.8093L8.60125 57.4268Z" fill="white"/>
</g>
<rect x="108" width="120" height="120" rx="60" fill="#FFADF2"/>
<g clip-path="url(#clip1_2_2)">
<path fill-rule="evenodd" clip-rule="evenodd" d="M168 28C185.661 28 200 42.3387 200 60C200 77.6616 185.661 92 168 92C150.338 92 136 77.6613 136 60C136 42.3387 150.338 28 168 28Z" fill="#C622AC"/>
<mask id="mask0_2_2" style="mask-type:luminance" maskUnits="userSpaceOnUse" x="136" y="28" width="64" height="64">
<path d="M168 28C185.661 28 200 42.3387 200 60C200 77.6616 185.661 92 168 92C150.338 92 136 77.6613 136 60C136 42.3387 150.338 28 168 28Z" fill="white"/>
</mask>
<g mask="url(#mask0_2_2)">
<path fill-rule="evenodd" clip-rule="evenodd" d="M177.969 54.6367C180.461 54.6367 182.486 56.6612 182.486 59.1544C182.486 61.6473 180.461 63.6717 177.969 63.6717C175.475 63.6717 173.451 61.6473 173.451 59.1544C173.451 56.6612 175.475 54.6367 177.969 54.6367Z" fill="white"/>
</g>
<mask id="mask1_2_2" style="mask-type:luminance" maskUnits="userSpaceOnUse" x="136" y="28" width="64" height="64">
<path d="M168 28C185.661 28 200 42.3387 200 60C200 77.6616 185.661 92 168 92C150.338 92 136 77.6613 136 60C136 42.3387 150.338 28 168 28Z" fill="white"/>
</mask>
<g mask="url(#mask1_2_2)">
<path fill-rule="evenodd" clip-rule="evenodd" d="M158.077 64.4414C160.137 64.4414 161.809 66.114 161.809 68.1742C161.809 70.234 160.137 71.9062 158.077 71.9062C156.017 71.9062 154.344 70.234 154.344 68.1742C154.344 66.1144 156.017 64.4414 158.077 64.4414Z" fill="white"/>
</g>
<mask id="mask2_2_2" style="mask-type:luminance" maskUnits="userSpaceOnUse" x="136" y="28" width="64" height="64">
<path d="M168 28C185.661 28 200 42.3387 200 60C200 77.6616 185.661 92 168 92C150.338 92 136 77.6613 136 60C136 42.3387 150.338 28 168 28Z" fill="white"/>
</mask>
<g mask="url(#mask2_2_2)">
</g>
<mask id="mask3_2_2" style="mask-type:luminance" maskUnits="userSpaceOnUse" x="136" y="28" width="64" height="64">
<path d="M168 28C185.661 28 200 42.3387 200 60C200 77.6616 185.661 92 168 92C150.338 92 136 77.6613 136 60C136 42.3387 150.338 28 168 28Z" fill="white"/>
</mask>
<g mask="url(#mask3_2_2)">
<path fill-rule="evenodd" clip-rule="evenodd" d="M149.886 90.7501C146.641 85.1817 144.172 71.2964 143.599 67.6453C142.863 62.9619 141.264 60.1844 143.765 59.3598C146.447 58.4752 148.435 65.8392 153.732 71.6592C159.434 77.9253 167.03 73.794 168.528 77.7341C169.298 79.7582 164.079 81.5859 161.897 84.4302C158.351 89.0535 158.667 92.0179 158.85 96.3526" fill="white"/>
<path fill-rule="evenodd" clip-rule="evenodd" d="M178.092 97.0871C177.562 94.738 177.913 92.1312 177.713 89.7412C177.395 85.9429 176.242 81.9662 173.916 78.8966C172.872 77.518 171.644 76.1941 170.17 75.2718C168.668 74.333 166.982 73.7106 165.587 72.601C164.459 71.7042 162.997 70.0285 163.238 68.4434C163.52 66.5799 165.942 66.7743 167.291 66.8932C171.556 67.2686 175.844 67.8269 180.034 66.5595C183.915 65.3855 186.66 62.4576 189.084 59.3762C189.494 58.8552 190.968 56.8708 191.924 57.3887C193.476 58.2281 193.285 61.1866 193.341 62.6202C193.573 68.4363 192.892 74.13 190.985 79.6532C189.527 83.8788 187.569 88.4389 184.436 91.7064" fill="white"/>
</g>
</g>
<rect x="244" width="120" height="120" rx="60" fill="#FFADF2"/>
<g clip-path="url(#clip2_2_2)">
<path d="M278.991 36.9921C290.29 29.0118 298.981 39.5205 298.981 39.5205L323.396 68.9921C323.396 68.9921 324.937 71.56 322.724 73.5353C320.472 75.5501 318.932 74.1279 318.932 74.1279C318.932 74.1279 320.354 77.2094 317.865 78.6711C315.376 80.1328 313.638 78.2365 313.638 78.2365C313.638 78.2365 315.06 81.6341 312.611 83.2143C310.161 84.7946 307.672 82.1476 307.672 82.1476C307.672 82.1476 308.66 84.9921 306.369 85.9402C304.077 86.8884 302.379 85.5452 302.379 85.5452C298.665 82.9378 281.124 65.239 281.124 65.239C271.169 55.402 267.811 44.9328 278.991 36.9921Z" fill="#FF60E6"/>
<path d="M293.016 52.834L310.398 38.1377C310.398 38.1377 321.776 27.7476 332.719 39.955C341.095 49.3575 329.322 62.2365 322.132 67.8068L309.845 52.676C309.845 52.676 300.403 60.4192 295.544 56.9031C295.07 56.5476 292.542 53.2686 293.016 52.834Z" fill="#C622AC"/>
<path fill-rule="evenodd" clip-rule="evenodd" d="M311.647 65.6608C311.785 65.5433 311.992 65.5599 312.11 65.6979L319.142 73.9547C319.259 74.0926 319.243 74.2997 319.105 74.4172C318.967 74.5347 318.76 74.5181 318.642 74.3802L311.61 66.1234C311.493 65.9854 311.509 65.7783 311.647 65.6608Z" fill="#C622AC"/>
<path fill-rule="evenodd" clip-rule="evenodd" d="M306.389 70.0491C306.526 69.9297 306.733 69.9434 306.852 70.0797L313.845 78.0599C313.965 78.1962 313.951 78.4035 313.815 78.5229C313.678 78.6424 313.471 78.6287 313.352 78.4924L306.359 70.5121C306.24 70.3758 306.253 70.1685 306.389 70.0491Z" fill="#C622AC"/>
<path fill-rule="evenodd" clip-rule="evenodd" d="M300.66 74.2373C300.796 74.1175 301.004 74.1304 301.123 74.2663L307.918 81.9701C308.038 82.106 308.025 82.3133 307.889 82.4332C307.754 82.553 307.546 82.54 307.426 82.4041L300.631 74.7004C300.511 74.5645 300.524 74.3572 300.66 74.2373Z" fill="#C622AC"/>
<path fill-rule="evenodd" clip-rule="evenodd" d="M310.082 52.4132C309.937 52.3046 309.731 52.334 309.622 52.4789L310.082 52.4132ZM309.885 52.6758C309.688 52.9383 309.688 52.9384 309.688 52.9385L309.689 52.939L309.691 52.9403L309.697 52.9452L309.721 52.963C309.743 52.9785 309.774 53.0009 309.814 53.0296C309.895 53.087 310.014 53.1696 310.167 53.272C310.475 53.4766 310.921 53.7602 311.483 54.0791C312.606 54.7162 314.194 55.4966 316.05 56.066C319.761 57.2042 324.589 57.5098 328.894 54.078C329.036 53.9651 329.059 53.7586 328.946 53.6169C328.833 53.4752 328.627 53.4519 328.485 53.5649C324.415 56.8097 319.841 56.5425 316.243 55.4386C314.445 54.887 312.901 54.1292 311.807 53.5083C311.26 53.1981 310.827 52.9229 310.531 52.7258C310.383 52.6273 310.27 52.5483 310.194 52.4944C310.156 52.4675 310.127 52.4468 310.108 52.433L310.088 52.4177L310.083 52.4141L310.082 52.4132M309.885 52.6758L309.688 52.9383C309.543 52.8296 309.514 52.6239 309.622 52.4789" fill="#FF60E6"/>
</g>
<rect x="380" width="120" height="120" rx="60" fill="#FFADF2"/>
<g clip-path="url(#clip3_2_2)">
<path fill-rule="evenodd" clip-rule="evenodd" d="M426.672 44.3532C426.672 48.5544 428.534 52.3201 431.478 54.8709C429.7 52.7833 428.625 50.0769 428.625 47.1193C428.625 41.8534 432.029 37.3821 436.756 35.7859C435.873 34.8459 435.332 33.5817 435.332 32.1899C435.332 31.9372 435.35 31.6888 435.384 31.4458C430.277 33.5057 426.672 38.508 426.672 44.3532ZM444.414 35.7859C449.141 37.3821 452.545 41.8534 452.545 47.1193C452.545 50.0769 451.471 52.7833 449.692 54.8709C452.636 52.3201 454.498 48.5539 454.498 44.3532C454.498 38.5086 450.893 33.5057 445.786 31.4463C445.82 31.6893 445.839 31.9377 445.839 32.1905C445.837 33.5811 445.297 34.8459 444.414 35.7859Z" fill="#C622AC"/>
<path fill-rule="evenodd" clip-rule="evenodd" d="M436.395 32.1898C436.395 34.5036 438.271 36.3797 440.585 36.3797C442.898 36.3797 444.774 34.5036 444.774 32.1898C444.774 29.8761 442.898 28 440.585 28C438.271 28 436.395 29.8761 436.395 32.1898Z" fill="#C622AC"/>
<path fill-rule="evenodd" clip-rule="evenodd" d="M420.094 63.839C423.732 65.9396 427.924 66.2102 431.606 64.9362C428.908 65.4325 426.027 65.01 423.466 63.5309C418.906 60.8982 416.735 55.7142 417.716 50.8226C416.461 51.1176 415.095 50.9538 413.891 50.258C413.671 50.1316 413.466 49.9922 413.273 49.8403C412.502 55.2939 415.032 60.9167 420.094 63.839ZM421.545 44.191C425.291 40.895 430.865 40.1834 435.425 42.8161C437.987 44.2946 439.793 46.5785 440.713 49.1624C439.975 45.3376 437.644 41.842 434.007 39.7413C428.945 36.819 422.81 37.4395 418.473 40.8331C418.7 40.9248 418.924 41.0327 419.143 41.1597C420.348 41.8555 421.172 42.9565 421.545 44.191Z" fill="#FF60E6"/>
<path fill-rule="evenodd" clip-rule="evenodd" d="M414.422 49.338C416.426 50.4949 418.988 49.8082 420.145 47.8042C421.302 45.8001 420.615 43.2374 418.611 42.0805C416.607 40.9236 414.045 41.6103 412.888 43.6143C411.731 45.6179 412.418 48.1806 414.422 49.338Z" fill="#C622AC"/>
<path fill-rule="evenodd" clip-rule="evenodd" d="M433.68 79.2796C437.318 77.179 439.649 73.684 440.386 69.8592C439.467 72.4436 437.661 74.727 435.1 76.2055C430.539 78.8387 424.965 78.1266 421.219 74.8306C420.846 76.065 420.021 77.166 418.816 77.8619C418.598 77.9882 418.373 78.0967 418.146 78.1884C422.484 81.5809 428.619 82.2019 433.68 79.2796ZM417.39 68.199C416.409 63.3068 418.579 58.1238 423.14 55.4906C425.701 54.0116 428.582 53.5885 431.28 54.0853C427.599 52.8118 423.406 53.0819 419.768 55.1826C414.706 58.1049 412.177 63.7282 412.946 69.1812C413.139 69.0299 413.345 68.8899 413.564 68.7636C414.769 68.0677 416.134 67.9039 417.39 68.199Z" fill="white"/>
<path fill-rule="evenodd" clip-rule="evenodd" d="M418.285 76.9415C420.29 75.7841 420.976 73.2219 419.819 71.2178C418.662 69.2138 416.1 68.5271 414.096 69.684C412.092 70.8409 411.405 73.4036 412.562 75.4077C413.719 77.4117 416.281 78.0984 418.285 76.9415Z" fill="#C622AC"/>
<path fill-rule="evenodd" clip-rule="evenodd" d="M453.845 75.2336C453.845 71.0329 451.983 67.2667 449.039 64.7159C450.818 66.8035 451.892 69.5099 451.892 72.4675C451.892 77.7339 448.488 82.2047 443.761 83.8014C444.644 84.7414 445.185 86.0056 445.185 87.3974C445.185 87.6496 445.167 87.898 445.132 88.1415C450.24 86.0805 453.845 81.0782 453.845 75.2336ZM436.104 83.8009C431.377 82.2042 427.973 77.7334 427.973 72.4669C427.973 69.5094 429.047 66.8029 430.826 64.7153C427.882 67.2661 426.02 71.0323 426.02 75.233C426.02 81.0782 429.625 86.0805 434.732 88.1404C434.698 87.8974 434.68 87.649 434.68 87.3963C434.68 86.0056 435.221 84.7408 436.104 83.8009Z" fill="#C622AC"/>
<path fill-rule="evenodd" clip-rule="evenodd" d="M444.122 87.3969C444.122 85.0826 442.247 83.207 439.933 83.207C437.619 83.207 435.743 85.0831 435.743 87.3969C435.743 89.7112 437.619 91.5867 439.933 91.5867C442.247 91.5867 444.122 89.7106 444.122 87.3969Z" fill="#C622AC"/>
<path fill-rule="evenodd" clip-rule="evenodd" d="M460.423 55.7475C456.786 53.6469 452.593 53.3768 448.912 54.6503C451.609 54.154 454.49 54.5765 457.052 56.0556C461.612 58.6882 463.782 63.8717 462.801 68.7639C464.057 68.4689 465.423 68.6326 466.627 69.3285C466.846 69.4549 467.052 69.5943 467.245 69.7461C468.015 64.2931 465.485 58.6698 460.423 55.7475ZM458.973 75.3955C455.226 78.691 449.652 79.4031 445.092 76.7699C442.531 75.2914 440.724 73.008 439.805 70.4236C440.542 74.2484 442.873 77.744 446.511 79.8446C451.572 82.7669 457.708 82.1459 462.045 78.7528C461.817 78.6611 461.593 78.5526 461.375 78.4263C460.17 77.731 459.345 76.6299 458.973 75.3955Z" fill="#FF60E6"/>
<path fill-rule="evenodd" clip-rule="evenodd" d="M466.096 70.2485C464.092 69.0916 461.529 69.7782 460.372 71.7823C459.216 73.7864 459.902 76.3485 461.906 77.506C463.91 78.6628 466.473 77.9767 467.63 75.9721C468.787 73.9681 468.1 71.4059 466.096 70.2485Z" fill="#C622AC"/>
<path fill-rule="evenodd" clip-rule="evenodd" d="M446.837 40.307C443.199 42.4076 440.868 45.9032 440.131 49.7275C441.05 47.1431 442.857 44.8597 445.418 43.3812C449.978 40.7485 455.552 41.4601 459.299 44.7561C459.671 43.5216 460.496 42.4206 461.7 41.7253C461.919 41.5989 462.143 41.4905 462.371 41.3988C458.034 38.0052 451.899 37.3842 446.837 40.307ZM463.127 51.3877C464.108 56.2799 461.938 61.4628 457.377 64.096C454.816 65.5745 451.935 65.9976 449.238 65.5013C452.919 66.7748 457.111 66.5047 460.749 64.4041C465.811 61.4818 468.341 55.8585 467.571 50.4054C467.378 50.5568 467.172 50.6967 466.953 50.8231C465.748 51.5189 464.383 51.6827 463.127 51.3877Z" fill="white"/>
<path fill-rule="evenodd" clip-rule="evenodd" d="M462.232 42.645C460.228 43.8019 459.542 46.3646 460.698 48.3686C461.855 50.3727 464.418 51.0593 466.422 49.9019C468.426 48.745 469.113 46.1823 467.956 44.1783C466.799 42.1747 464.236 41.4881 462.232 42.645Z" fill="#C622AC"/>
</g>
<rect x="516" width="120" height="120" rx="60" fill="#FFADF2"/>
<g clip-path="url(#clip4_2_2)">
<path fill-rule="evenodd" clip-rule="evenodd" d="M576.941 33C585.097 33 592.408 36.615 597.361 42.3293C593.307 38.8763 588.053 36.7907 582.312 36.7907C572.088 36.7907 563.408 43.3985 560.308 52.5759C558.484 50.8621 556.028 49.8112 553.328 49.8112C552.838 49.8112 552.355 49.8462 551.883 49.9133C555.882 39.9983 565.594 33 576.941 33ZM560.308 67.4432C563.408 76.6206 572.088 83.2288 582.312 83.2288C588.053 83.2288 593.307 81.1432 597.361 77.6903C592.408 83.4051 585.097 87.0196 576.941 87.0196C565.594 87.0196 555.882 80.0212 551.883 70.1058C552.355 70.1728 552.837 70.2079 553.328 70.2079C556.028 70.2079 558.484 69.1569 560.308 67.4432Z" fill="white"/>
<path d="M554.624 68.0387C559.059 67.3226 562.074 63.1467 561.358 58.7116C560.641 54.2765 556.466 51.2616 552.03 51.9778C547.595 52.6939 544.581 56.8698 545.297 61.3049C546.013 65.74 550.189 68.7548 554.624 68.0387Z" fill="#C622AC"/>
<path fill-rule="evenodd" clip-rule="evenodd" d="M583.213 39.1328C576.909 39.1328 571.258 41.927 567.43 46.344C570.563 43.6753 574.624 42.0631 579.062 42.0631C586.964 42.0631 593.673 47.1704 596.069 54.2642C597.479 52.9395 599.377 52.1274 601.464 52.1274C601.843 52.1274 602.216 52.1548 602.581 52.2061C599.49 44.5423 591.983 39.1328 583.213 39.1328ZM596.069 65.7553C593.673 72.8491 586.964 77.9564 579.062 77.9564C574.624 77.9564 570.563 76.3448 567.43 73.6755C571.258 78.0926 576.909 80.8867 583.213 80.8867C591.983 80.8867 599.49 75.4777 602.581 67.8135C602.216 67.8653 601.843 67.8927 601.464 67.8927C599.377 67.8922 597.479 67.08 596.069 65.7553Z" fill="#FF60E6"/>
<path fill-rule="evenodd" clip-rule="evenodd" d="M580.708 45.394C585.122 45.394 589.078 47.3501 591.758 50.4424C589.564 48.5737 586.722 47.4456 583.614 47.4456C578.082 47.4456 573.385 51.021 571.707 55.9876C570.72 55.0601 569.391 54.4917 567.93 54.4917C567.665 54.4917 567.404 54.511 567.149 54.5471C569.312 49.1812 574.568 45.394 580.708 45.394ZM571.707 64.0318C573.385 68.9979 578.082 72.5737 583.614 72.5737C586.721 72.5737 589.564 71.4456 591.758 69.5769C589.078 72.6692 585.122 74.6253 580.708 74.6253C574.568 74.6253 569.312 70.8381 567.149 65.4728C567.404 65.5088 567.665 65.5281 567.93 65.5281C569.391 65.5281 570.72 64.9598 571.707 64.0318Z" fill="#C622AC"/>
<path fill-rule="evenodd" clip-rule="evenodd" d="M567.93 64.4115C570.354 64.4115 572.332 62.4341 572.332 60.0097C572.332 57.5853 570.354 55.6079 567.93 55.6079C565.505 55.6079 563.528 57.5853 563.528 60.0097C563.528 62.4341 565.505 64.4115 567.93 64.4115Z" fill="#C622AC"/>
</g>
<rect x="-60" y="136" width="120" height="120" rx="60" fill="#FFADF2"/>
<g clip-path="url(#clip5_2_2)">
<path d="M22.3688 205.809C27.3324 193.554 21.4211 179.595 9.16547 174.631C-3.09013 169.668 -17.049 175.579 -22.0126 187.835C-26.9762 200.09 -21.0649 214.049 -8.80928 219.013C3.44632 223.976 17.4052 218.065 22.3688 205.809Z" fill="#C622AC"/>
<path d="M17.2437 206.641C17.199 204.502 16.3148 202.269 14.5125 201.116C14.0328 200.809 13.5068 200.592 12.958 200.455C13.13 199.863 13.2683 199.267 13.3516 198.67C13.6369 196.624 13.5504 194.474 13.6304 192.413C13.7328 189.771 13.8215 187.128 13.8798 184.484C13.9451 181.526 13.9723 178.568 13.938 175.609C13.9223 174.259 13.8825 172.861 13.2988 171.644C12.7151 170.427 11.4323 169.438 10.0966 169.632C9.02018 169.788 8.16152 170.671 7.72919 171.669C7.29687 172.668 7.21574 173.777 7.14005 174.862C6.91572 178.092 6.69085 181.321 6.46651 184.551C6.33965 186.375 6.1959 188.261 5.3405 189.877C4.6381 189.602 4.21395 188.692 4.10559 187.945C3.10917 181.044 2.35505 174.207 1.61018 167.996C1.50074 167.085 1.02105 166.229 0.400867 165.553C-0.219309 164.877 -1.1455 164.432 -2.05262 164.569C-3.84237 164.84 -4.13204 167.344 -4.41463 168.773C-4.83443 170.898 -4.16743 183.754 -5.00214 188.098C-5.11103 188.665 -5.4851 189.01 -6.05464 189.104C-7.14798 189.284 -9.78278 180.967 -11.3471 177.049C-11.848 175.795 -12.3691 174.492 -13.3585 173.571C-13.7881 173.172 -14.3407 172.846 -14.9261 172.886C-16.0788 172.965 -16.626 174.321 -16.8084 175.461C-17.3496 178.847 -13.6912 194.349 -12.8113 199.663C-12.9702 199.696 -13.1281 199.734 -13.285 199.779C-14.3935 200.094 -15.452 200.726 -16.0597 201.705C-17.0142 203.244 -16.6695 205.235 -16.1381 206.966C-14.6489 211.81 -11.97 216.191 -9.24809 220.466C-8.74934 221.25 -8.23479 222.047 -7.51061 222.629C-6.75976 223.232 -5.8314 223.566 -4.9074 223.838C-2.31343 224.6 0.400316 224.953 3.10263 224.88C4.3321 224.847 5.56973 224.724 6.74311 224.355C9.16556 223.593 11.1726 221.816 12.6264 219.735C14.0801 217.653 15.0341 215.268 15.8922 212.878C16.6159 210.864 17.2883 208.78 17.2437 206.641Z" fill="#FFADF2"/>
<path d="M-4.15056 196.52C-5.63321 195.578 -7.13492 194.657 -8.7281 193.916C-9.51326 193.55 -10.3382 193.225 -11.2028 193.184C-11.5595 193.167 -11.9466 193.212 -12.2118 193.451C-12.4688 193.683 -12.5559 194.046 -12.6016 194.389C-12.9104 196.698 -11.9439 199.04 -10.452 200.828C-8.96006 202.617 -6.983 203.929 -4.98036 205.118C-3.99755 205.701 -2.99078 206.266 -1.89581 206.593C-0.800834 206.92 0.40086 206.995 1.47297 206.6C1.84649 206.462 2.20259 206.268 2.49661 206C2.83747 205.688 3.08739 205.281 3.22133 204.839C3.79631 202.945 1.98152 201.279 0.73518 200.116C-0.746385 198.732 -2.44466 197.605 -4.15056 196.52Z" fill="#FFADF2"/>
<path d="M19.0835 200.875C19.1211 199.503 19.035 198.087 18.4519 196.844C17.8687 195.601 16.6964 194.559 15.3265 194.469C13.7251 194.364 12.3122 195.536 11.3784 196.841C9.18624 199.904 8.68476 203.937 9.29677 207.653C9.47047 208.707 9.73291 209.763 10.2594 210.692C10.786 211.622 11.6038 212.42 12.6204 212.748C13.5536 213.049 14.5626 212.894 15.4103 212.425C16.1138 212.035 16.3675 211.548 16.703 210.835C17.6411 208.845 18.3158 206.732 18.7034 204.565C18.9223 203.347 19.0497 202.113 19.0835 200.875Z" fill="#FFADF2"/>
<path d="M11.0245 202.649C10.6188 202.842 10.2034 203.028 9.76015 203.103C9.37247 203.17 8.97444 203.15 8.58404 203.1C7.93827 203.018 7.29251 202.852 6.73495 202.516C6.17739 202.18 5.71239 201.659 5.53543 201.033C5.3552 200.394 5.48806 199.694 5.80006 199.108C6.11205 198.523 6.59011 198.04 7.11065 197.629C8.65646 196.407 10.5736 195.77 12.4619 195.207C13.2591 194.97 14.0802 194.739 14.9094 194.802C15.4643 194.845 16.0621 195.066 16.3104 195.563C16.5456 196.035 16.3975 196.602 16.2037 197.092C15.1882 199.661 13.5095 201.464 11.0245 202.649Z" fill="#FFADF2"/>
<path d="M9.9714 173.691C9.97032 173.93 9.77593 174.123 9.53745 174.122C9.29896 174.121 9.10621 173.927 9.10675 173.688C9.10784 173.45 9.30168 173.257 9.54071 173.257C9.7792 173.258 9.97195 173.452 9.9714 173.691Z" fill="#C622AC"/>
<path d="M0.367645 170.128C0.366556 170.366 0.172174 170.559 -0.0663143 170.558C-0.304802 170.557 -0.497553 170.364 -0.497008 170.125C-0.495919 169.886 -0.302081 169.693 -0.0630491 169.694C0.175983 169.695 0.368734 169.889 0.367645 170.128Z" fill="#C622AC"/>
<path d="M12.0944 173.66C12.0933 173.899 11.8995 174.091 11.6604 174.091C11.4219 174.09 11.2292 173.896 11.2297 173.657C11.2308 173.418 11.4252 173.226 11.6637 173.226C11.9022 173.227 12.0949 173.422 12.0944 173.66Z" fill="#C622AC"/>
<path d="M-2.11688 171.426C-1.64317 172.062 -0.572157 172.116 -0.0363766 171.531" stroke="#C622AC" stroke-width="0.6873" stroke-miterlimit="10" stroke-linecap="round" stroke-linejoin="round"/>
<path d="M9.44379 175.115C9.66648 175.594 10.1952 175.912 10.7223 175.884C11.2493 175.856 11.7421 175.484 11.9125 174.984" stroke="#C622AC" stroke-width="0.6873" stroke-miterlimit="10" stroke-linecap="round" stroke-linejoin="round"/>
<path d="M-1.56259 199.703C-2.23504 200.185 -2.96575 200.765 -3.02129 201.562C-3.06648 202.209 -2.64559 202.803 -2.21 203.313C-1.38074 204.283 0.462372 205.769 1.29654 205.353C1.63358 205.185 1.79965 204.849 1.82578 204.494C1.91181 203.321 1.46969 202.17 0.792338 201.189C0.447674 200.691 0.027873 200.266 -0.385397 199.82C-0.776887 199.396 -1.03716 199.327 -1.56259 199.703Z" fill="#C622AC"/>
<path d="M4.53954 201.078C5.30292 202.461 6.74147 201.697 7.67528 201.298C8.43484 200.973 9.24396 200.528 9.51021 199.745C9.66757 199.283 9.60169 198.763 9.40077 198.317C9.2053 197.884 8.83123 197.338 8.41741 197.084C8.04117 196.854 7.57563 197.204 7.22226 197.388C6.36523 197.836 5.56427 198.423 4.95444 199.179C4.62284 199.59 3.91065 199.939 4.53954 201.078Z" fill="#C622AC"/>
<path d="M-4.18922 213.98C-3.20695 208.871 -7.15071 203.742 -7.15071 203.742C-7.15071 203.742 -2.77735 207.406 0.762943 207.152" stroke="#C622AC" stroke-width="1.1455" stroke-miterlimit="10" stroke-linecap="round" stroke-linejoin="round"/>
<path d="M0.72592 207.185C1.64666 206.648 2.17808 205.577 2.23307 204.512C2.28806 203.448 1.91672 202.396 1.36624 201.483C0.815758 200.57 0.315917 199.908 -0.485031 199.204C-2.99514 197.001 -5.91526 195.267 -9.05045 194.116C-9.82363 193.832 -10.6262 193.581 -11.4495 193.59C-12.2728 193.598 -14.5204 193.669 -16.6309 199.133" stroke="#C622AC" stroke-width="1.1455" stroke-miterlimit="10" stroke-linecap="round" stroke-linejoin="round"/>
<path d="M4.73175 199.216C3.22132 204.839 9.9861 202.643 11.5417 201.918C13.0979 201.192 14.0807 200.475 14.0807 200.475" stroke="#C622AC" stroke-width="1.1455" stroke-miterlimit="10" stroke-linecap="round" stroke-linejoin="round"/>
<path d="M4.73175 199.216C6.92224 197.528 9.40948 196.226 12.0454 195.388C13.8738 194.806 16.0643 194.512 17.5486 195.728C19.0307 196.942 19.1755 199.134 19.0394 201.046C18.5744 207.595 16.2156 213.938 12.7156 219.493" stroke="#C622AC" stroke-width="1.1455" stroke-miterlimit="10" stroke-linecap="round" stroke-linejoin="round"/>
<path d="M12.383 204.484C12.438 204.808 12.7369 201.887 14.0812 200.476" stroke="#C622AC" stroke-width="1.1455" stroke-miterlimit="10" stroke-linecap="round" stroke-linejoin="round"/>
<path d="M-2.08148 164.712C-0.47904 164.91 0.81903 166.201 1.48113 167.673C2.14269 169.146 2.28099 170.792 2.41058 172.401C2.73292 176.412 3.05526 180.424 3.37814 184.435C3.5257 186.268 3.80231 188.653 5.30021 189.719" stroke="#C622AC" stroke-width="1.1455" stroke-miterlimit="10" stroke-linecap="round" stroke-linejoin="round"/>
<path d="M7.32353 173.408C7.32353 173.408 7.67964 171.559 8.28293 170.729C8.88623 169.898 9.93819 169.357 10.9493 169.534C11.9033 169.701 12.6694 170.463 13.0848 171.338C13.5008 172.212 13.6206 173.195 13.7126 174.158C14.3736 181.086 13.8792 188.066 13.3843 195.007" stroke="#C622AC" stroke-width="1.1455" stroke-miterlimit="10" stroke-linecap="round" stroke-linejoin="round"/>
<path d="M6.07065 188.454C6.41368 186.934 6.43709 184.194 6.59826 182.645C6.59826 182.645 7.10082 177.073 7.10736 175.322" stroke="#C622AC" stroke-width="1.1455" stroke-miterlimit="10" stroke-linecap="round" stroke-linejoin="round"/>
<path d="M11.6697 196.551C11.7753 196.658 11.8809 196.764 11.9871 196.87" stroke="#C622AC" stroke-width="1.1455" stroke-miterlimit="10" stroke-linecap="round" stroke-linejoin="round"/>
<path d="M12.9449 196.237C13.191 196.592 13.4376 196.946 13.6838 197.301" stroke="#C622AC" stroke-width="1.1455" stroke-miterlimit="10" stroke-linecap="round" stroke-linejoin="round"/>
<path d="M-2.71745 207.038C0.724829 208.686 3.36562 211.923 4.28854 215.627" stroke="#C622AC" stroke-width="1.1455" stroke-miterlimit="10" stroke-linecap="round" stroke-linejoin="round"/>
<path d="M2.3006 207.721C4.2232 205.662 7.03986 204.469 9.85652 204.521" stroke="#C622AC" stroke-width="1.1455" stroke-miterlimit="10" stroke-linecap="round" stroke-linejoin="round"/>
<path d="M9.95016 180.542C10.364 180.544 10.7772 180.545 11.1911 180.547" stroke="#C622AC" stroke-width="1.1455" stroke-miterlimit="10" stroke-linecap="round" stroke-linejoin="round"/>
<path d="M9.57501 185.859C10.1059 186.038 10.6373 186.218 11.1682 186.397" stroke="#C622AC" stroke-width="1.1455" stroke-miterlimit="10" stroke-linecap="round" stroke-linejoin="round"/>
<path d="M-1.7695 185.637C-1.29688 185.639 -0.824264 185.641 -0.3511 185.643" stroke="#C622AC" stroke-width="1.1455" stroke-miterlimit="10" stroke-linecap="round" stroke-linejoin="round"/>
<path d="M-4.6564 193.46C-2.95813 196.06 1.9777 198.65 5.73252 198.502" stroke="#C622AC" stroke-width="1.1455" stroke-miterlimit="10" stroke-linecap="round" stroke-linejoin="round"/>
</g>
<rect x="76" y="136" width="120" height="120" rx="60" fill="#FFADF2"/>
<g clip-path="url(#clip6_2_2)">
<path d="M136.875 227.272C143.705 226.869 148.916 221.006 148.514 214.176C148.112 207.346 142.249 202.135 135.418 202.537C128.588 202.939 123.377 208.803 123.779 215.633C124.182 222.463 130.045 227.674 136.875 227.272Z" fill="white"/>
<path d="M132.971 212.427C132.969 213.008 132.495 213.478 131.914 213.476C131.332 213.474 130.863 213.001 130.865 212.419C130.867 211.837 131.341 211.368 131.922 211.37C132.504 211.372 132.974 211.845 132.971 212.427Z" fill="#C622AC"/>
<path d="M141.724 212.461C141.721 213.042 141.248 213.511 140.667 213.51C140.085 213.508 139.616 213.034 139.618 212.452C139.62 211.871 140.093 211.401 140.675 211.403C141.256 211.406 141.726 211.879 141.724 212.461Z" fill="#C622AC"/>
<path d="M129.985 182.963C134.633 187.984 134.332 195.822 129.311 200.47C124.29 205.118 116.452 204.816 111.804 199.796C107.156 194.775 107.457 186.937 112.478 182.289C117.499 177.641 125.337 177.943 129.985 182.963Z" fill="#C622AC"/>
<path d="M116.899 191.738C117.294 192.165 117.269 192.831 116.842 193.226C116.415 193.621 115.749 193.595 115.354 193.169C114.959 192.742 114.984 192.076 115.411 191.681C115.838 191.285 116.504 191.311 116.899 191.738Z" fill="white"/>
<path d="M123.322 185.791C123.716 186.218 123.691 186.884 123.264 187.279C122.837 187.674 122.171 187.649 121.776 187.222C121.381 186.796 121.407 186.129 121.833 185.734C122.26 185.34 122.927 185.365 123.322 185.791Z" fill="white"/>
<path fill-rule="evenodd" clip-rule="evenodd" d="M126.364 190.048C126.757 189.937 127.165 190.166 127.276 190.559C127.849 192.594 127.263 194.786 125.746 196.247L125.746 196.247C124.171 197.764 121.853 198.245 119.791 197.49C119.407 197.349 119.21 196.924 119.351 196.541C119.491 196.157 119.916 195.96 120.3 196.101C121.835 196.663 123.556 196.302 124.72 195.182C125.84 194.102 126.279 192.476 125.852 190.96C125.741 190.567 125.97 190.159 126.364 190.048Z" fill="white"/>
<path d="M142.536 183.012C137.849 187.996 138.09 195.836 143.075 200.523C148.059 205.21 155.899 204.969 160.586 199.985C165.273 195 165.032 187.16 160.048 182.473C155.063 177.786 147.223 178.027 142.536 183.012Z" fill="#FF60E6"/>
<path d="M155.554 191.888C155.155 192.312 155.176 192.978 155.6 193.376C156.023 193.775 156.69 193.754 157.088 193.33C157.486 192.907 157.466 192.241 157.042 191.842C156.618 191.444 155.952 191.464 155.554 191.888Z" fill="white"/>
<path d="M149.177 185.892C148.778 186.315 148.799 186.982 149.222 187.38C149.646 187.779 150.313 187.758 150.711 187.334C151.109 186.911 151.089 186.244 150.665 185.846C150.242 185.448 149.576 185.468 149.177 185.892Z" fill="white"/>
<path d="M136.201 169.897C135.771 168.614 135.259 167.337 134.443 166.259C133.626 165.18 132.471 164.306 131.14 164.064C128.906 163.66 126.61 165.211 125.74 167.309C124.871 169.406 125.248 171.868 126.296 173.882C127.343 175.896 128.997 177.528 130.728 178.996C132.46 180.464 134.303 181.811 135.884 183.44C138.95 181.549 141.88 178.764 144.317 176.11C145.702 174.601 147.004 172.914 147.481 170.922C147.958 168.93 147.416 166.572 145.72 165.422C144.102 164.324 141.852 164.593 140.156 165.569C138.46 166.545 137.425 168.371 136.201 169.897Z" fill="white"/>
<path d="M162.169 217.493C163.38 218.097 164.645 218.637 165.985 218.822C167.325 219.008 168.76 218.809 169.873 218.039C171.738 216.745 172.265 214.025 171.397 211.927C170.528 209.829 168.522 208.356 166.357 207.672C164.191 206.989 161.869 207.004 159.606 207.19C157.344 207.376 155.088 207.727 152.818 207.692C151.986 211.198 151.884 215.239 152.038 218.839C152.125 220.885 152.397 222.998 153.468 224.744C154.539 226.49 156.59 227.774 158.602 227.389C160.523 227.02 161.923 225.239 162.433 223.35C162.941 221.461 162.383 219.438 162.169 217.493Z" fill="#C622AC"/>
<path d="M109.769 217.29C108.554 217.885 107.285 218.414 105.943 218.59C104.601 218.766 103.168 218.556 102.062 217.776C100.206 216.469 99.7009 213.744 100.585 211.653C101.47 209.562 103.488 208.104 105.658 207.438C107.829 206.771 110.151 206.805 112.412 207.008C114.673 207.212 116.927 207.58 119.197 207.563C120.001 211.075 120.071 215.117 119.89 218.715C119.787 220.761 119.498 222.872 118.414 224.61C117.329 226.347 115.268 227.615 113.259 227.214C111.34 226.831 109.955 225.038 109.46 223.146C108.966 221.252 109.54 219.233 109.769 217.29Z" fill="#FF60E6"/>
<path fill-rule="evenodd" clip-rule="evenodd" d="M153.172 196.989C153.283 197.382 153.054 197.791 152.661 197.901C150.626 198.474 148.434 197.888 146.973 196.371L146.973 196.371C145.456 194.796 144.975 192.478 145.73 190.416C145.871 190.033 146.296 189.836 146.679 189.976C147.063 190.116 147.26 190.541 147.119 190.925C146.557 192.461 146.918 194.181 148.038 195.345C149.118 196.466 150.744 196.904 152.26 196.477C152.653 196.367 153.061 196.596 153.172 196.989Z" fill="white"/>
<path fill-rule="evenodd" clip-rule="evenodd" d="M140.97 217.63C141.327 217.83 141.453 218.281 141.254 218.637C140.22 220.481 138.256 221.616 136.15 221.577L136.15 221.577C133.963 221.536 131.985 220.237 131.06 218.245C130.889 217.874 131.05 217.435 131.42 217.263C131.791 217.091 132.23 217.252 132.402 217.622C133.091 219.106 134.563 220.068 136.177 220.098C137.733 220.127 139.194 219.287 139.963 217.914C140.163 217.557 140.614 217.431 140.97 217.63Z" fill="#C622AC"/>
</g>
<rect x="212" y="136" width="120" height="120" rx="60" fill="#FFADF2"/>
<g clip-path="url(#clip7_2_2)">
<path d="M300.935 189.68L273.04 164.863C272.014 163.697 270.191 163.715 269.188 164.901L242.606 189.507C241.211 191.156 242.378 193.684 244.538 193.692L247.492 193.704C248.014 193.706 248.436 194.131 248.433 194.653L248.316 225.067C248.311 226.472 249.444 227.615 250.85 227.62L292.643 227.783C294.047 227.788 295.19 226.654 295.196 225.25L295.312 195.3C295.315 194.521 295.948 193.892 296.727 193.895L299.016 193.904C301.209 193.912 302.384 191.327 300.935 189.68Z" fill="#C622AC"/>
<path d="M284.899 205.879L272.006 218.672L259.213 205.779C255.179 202.181 254.829 196.226 257.771 192.706C261.065 188.766 268.009 188.448 272.106 192.986C275.605 189.55 280.752 189.028 284.048 191.268C288.181 194.078 289.225 201.111 284.899 205.879Z" fill="white"/>
<mask id="mask4_2_2" style="mask-type:luminance" maskUnits="userSpaceOnUse" x="255" y="189" width="33" height="30">
<path d="M284.899 205.879L272.006 218.672L259.213 205.779C255.179 202.181 254.829 196.226 257.771 192.706C261.065 188.766 268.009 188.448 272.106 192.986C275.605 189.55 280.752 189.028 284.048 191.268C288.181 194.078 289.225 201.111 284.899 205.879Z" fill="white"/>
</mask>
<g mask="url(#mask4_2_2)">
<path d="M267.554 211.711C267.538 215.877 265.857 219.249 263.799 219.241C261.741 219.233 260.087 215.849 260.103 211.683C260.119 207.516 261.8 204.145 263.858 204.153C265.915 204.16 267.57 207.544 267.554 211.711Z" fill="#FF60E6"/>
<path d="M266.924 200.043C266.917 201.728 265.547 203.088 263.862 203.081C262.177 203.075 260.817 201.704 260.824 200.02C260.83 198.335 262.201 196.975 263.885 196.981C265.57 196.988 266.931 198.359 266.924 200.043Z" fill="#FF60E6"/>
<path d="M276.192 217.845C276.176 222.011 274.495 225.383 272.437 225.375C270.379 225.367 268.724 221.983 268.741 217.816C268.757 213.65 270.438 210.279 272.496 210.287C274.553 210.295 276.208 213.679 276.192 217.845Z" fill="#FF60E6"/>
<path d="M275.562 206.177C275.556 207.862 274.185 209.222 272.5 209.215C270.816 209.208 269.456 207.838 269.462 206.153C269.468 204.468 270.84 203.108 272.524 203.115C274.208 203.122 275.568 204.492 275.562 206.177Z" fill="#FF60E6"/>
<path d="M284.877 211.778C284.861 215.944 283.18 219.316 281.122 219.308C279.064 219.3 277.409 215.916 277.426 211.749C277.442 207.583 279.123 204.212 281.181 204.22C283.239 204.228 284.893 207.612 284.877 211.778Z" fill="#FF60E6"/>
<path d="M284.247 200.11C284.241 201.795 282.869 203.155 281.185 203.148C279.5 203.142 278.14 201.771 278.147 200.087C278.153 198.402 279.524 197.042 281.208 197.048C282.893 197.055 284.253 198.426 284.247 200.11Z" fill="#FF60E6"/>
</g>
</g>
<rect x="348" y="136" width="120" height="120" rx="60" fill="#FFADF2"/>
<path fill-rule="evenodd" clip-rule="evenodd" d="M386.354 176.63C391.078 179.426 398.515 190.979 402.544 193.414C407.999 196.711 411.729 193.904 416.436 190.251C423.225 184.984 429.489 182.322 432.145 181.771C436.798 180.806 440.374 184.497 440.823 188.304C441.52 194.209 439.703 199.412 436.906 204.725C434.631 209.048 418.941 226.474 407.521 227.657C402.471 228.18 399.345 225.76 394.391 221.602C388.048 216.278 384.819 212.681 380.531 205.307C377.818 200.641 375.575 193.794 375.06 188.372C374.623 183.771 376.391 170.731 386.354 176.63Z" fill="#C622AC"/>
<mask id="mask5_2_2" style="mask-type:luminance" maskUnits="userSpaceOnUse" x="375" y="175" width="66" height="53">
<path d="M386.354 176.63C391.078 179.426 398.515 190.979 402.544 193.414C407.999 196.711 411.729 193.904 416.436 190.251C423.225 184.984 429.489 182.322 432.145 181.771C436.798 180.806 440.374 184.497 440.823 188.304C441.52 194.209 439.703 199.412 436.906 204.725C434.631 209.048 418.941 226.474 407.521 227.657C402.471 228.18 399.345 225.76 394.391 221.602C388.048 216.278 384.819 212.681 380.531 205.307C377.818 200.641 375.575 193.794 375.06 188.372C374.623 183.771 376.391 170.731 386.354 176.63Z" fill="white"/>
</mask>
<g mask="url(#mask5_2_2)">
<path fill-rule="evenodd" clip-rule="evenodd" d="M396.994 228.484C397.965 224.686 398.806 206.935 395.413 200.588C392.882 195.855 390.151 190.986 388.497 185.83C387.941 184.096 387.1 181.711 388.009 179.935C389.153 177.7 390.869 180.156 391.953 181.453C395.632 185.852 398.984 192.481 404.956 194.145C410.359 195.651 413.355 191.97 418.719 189.026C420.306 188.155 425.018 185.02 426.922 187.03C428.954 189.174 422.262 193.42 420.09 196.964C418.637 199.334 417.395 202.078 416.845 204.129C414.422 213.164 418.802 221.221 420.047 230.047" fill="#FF60E6"/>
</g>
<path fill-rule="evenodd" clip-rule="evenodd" d="M396.953 164.276C400.254 164.276 402.933 166.933 402.933 170.205C402.933 173.478 400.253 176.134 396.953 176.134C393.652 176.134 390.972 173.478 390.972 170.205C390.972 166.933 393.652 164.276 396.953 164.276Z" fill="#C622AC"/>
<path d="M423.928 180.959C427.231 180.959 429.909 178.305 429.909 175.03C429.909 171.756 427.231 169.101 423.928 169.101C420.625 169.101 417.948 171.756 417.948 175.03C417.948 178.305 420.625 180.959 423.928 180.959Z" fill="#C622AC"/>
<path d="M409.306 188.661C412.067 188.661 414.305 186.442 414.305 183.705C414.305 180.968 412.067 178.75 409.306 178.75C406.545 178.75 404.308 180.968 404.308 183.705C404.308 186.442 406.545 188.661 409.306 188.661Z" fill="#FF60E6"/>
<rect x="484" y="136" width="120" height="120" rx="60" fill="#FFADF2"/>
<path fill-rule="evenodd" clip-rule="evenodd" d="M538.066 167C539.834 167 541.266 168.433 541.266 170.2C541.266 171.968 539.834 173.4 538.066 173.4C536.299 173.4 534.866 171.968 534.866 170.2C534.866 168.433 536.299 167 538.066 167Z" fill="#C622AC"/>
<path fill-rule="evenodd" clip-rule="evenodd" d="M543.24 190.926C534.656 184.876 528.506 174.809 529.542 167.28C530.912 170.913 533.127 175.9 539.932 177.434C542.287 173.279 545.622 169.036 550.321 167.28C545.562 173.208 544.764 181.303 543.24 190.926Z" fill="white"/>
<path fill-rule="evenodd" clip-rule="evenodd" d="M516.02 186.367C516.903 184.836 518.86 184.312 520.391 185.195C521.921 186.079 522.445 188.036 521.562 189.567C520.679 191.097 518.721 191.622 517.191 190.738C515.66 189.854 515.136 187.897 516.02 186.367Z" fill="#C622AC"/>
<path fill-rule="evenodd" clip-rule="evenodd" d="M539.327 193.849C529.796 198.259 518.003 198.551 512 193.888C515.832 194.52 521.258 195.095 525.989 189.969C523.568 185.851 521.561 180.841 522.389 175.894C525.144 182.979 531.755 187.718 539.327 193.849Z" fill="#FF60E6"/>
<path fill-rule="evenodd" clip-rule="evenodd" d="M521.706 214.955C520.822 213.425 521.347 211.468 522.877 210.584C524.408 209.7 526.365 210.225 527.248 211.755C528.132 213.286 527.608 215.243 526.077 216.127C524.547 217.011 522.589 216.486 521.706 214.955Z" fill="#C622AC"/>
<path fill-rule="evenodd" clip-rule="evenodd" d="M539.839 198.511C538.892 208.971 533.249 219.33 526.21 222.198C528.672 219.195 531.883 214.783 529.81 208.123C525.033 208.161 519.691 207.394 515.821 204.203C523.334 205.36 530.744 202.004 539.839 198.511Z" fill="white"/>
<path fill-rule="evenodd" clip-rule="evenodd" d="M549.439 224.572C547.671 224.572 546.239 223.14 546.239 221.372C546.239 219.605 547.671 218.172 549.439 218.172C551.206 218.172 552.639 219.605 552.639 221.372C552.639 223.14 551.206 224.572 549.439 224.572Z" fill="#C622AC"/>
<path fill-rule="evenodd" clip-rule="evenodd" d="M544.264 200.646C552.849 206.696 558.998 216.763 557.962 224.292C556.593 220.659 554.378 215.672 547.574 214.138C545.218 218.294 541.883 222.536 537.184 224.292C541.943 218.364 542.741 210.269 544.264 200.646Z" fill="#FF60E6"/>
<path fill-rule="evenodd" clip-rule="evenodd" d="M571.485 205.699C570.602 207.23 568.644 207.754 567.114 206.87C565.583 205.987 565.058 204.029 565.942 202.499C566.826 200.968 568.783 200.444 570.313 201.328C571.844 202.211 572.369 204.168 571.485 205.699Z" fill="#C622AC"/>
<path fill-rule="evenodd" clip-rule="evenodd" d="M548.178 198.217C557.709 193.808 569.503 193.516 575.505 198.178C571.673 197.547 566.247 196.972 561.517 202.098C563.938 206.215 565.945 211.226 565.116 216.172C562.361 209.087 555.75 204.348 548.178 198.217Z" fill="white"/>
<path fill-rule="evenodd" clip-rule="evenodd" d="M565.8 176.617C566.683 178.147 566.159 180.104 564.628 180.988C563.098 181.872 561.141 181.347 560.257 179.817C559.373 178.286 559.898 176.329 561.428 175.445C562.958 174.562 564.916 175.086 565.8 176.617Z" fill="#C622AC"/>
<path fill-rule="evenodd" clip-rule="evenodd" d="M547.666 193.061C548.612 182.602 554.256 172.243 561.295 169.375C558.833 172.378 555.621 176.79 557.695 183.45C562.472 183.411 567.814 184.179 571.684 187.369C564.171 186.213 556.761 189.569 547.666 193.061Z" fill="#FF60E6"/>
<defs>
<clipPath id="clip0_2_2">
<rect width="64" height="55.4667" fill="white" transform="translate(0 32)"/>
</clipPath>
<clipPath id="clip1_2_2">
<rect width="64" height="64" fill="white" transform="translate(136 28)"/>
</clipPath>
<clipPath id="clip2_2_2">
<rect width="64" height="52.5432" fill="white" transform="translate(272 34)"/>
</clipPath>
<clipPath id="clip3_2_2">
<rect width="56.9492" height="64" fill="white" transform="translate(412 28)"/>
</clipPath>
<clipPath id="clip4_2_2">
<rect width="64" height="54.3492" fill="white" transform="translate(544 33)"/>
</clipPath>
<clipPath id="clip5_2_2">
<rect width="62.3562" height="64" fill="white" transform="translate(-31 164)"/>
</clipPath>
<clipPath id="clip6_2_2">
<rect width="71.9571" height="64" fill="white" transform="translate(100 164)"/>
</clipPath>
<clipPath id="clip7_2_2">
<rect width="60" height="64" fill="white" transform="translate(242 164)"/>
</clipPath>
</defs>
</svg>
